<?xml version="1.0" encoding="UTF-8"?>
<!DOCTYPE svg PUBLIC "-//W3C//DTD SVG 1.1//EN" "http://www.w3.org/Graphics/SVG/1.1/DTD/svg11.dtd">
<svg xmlns="http://www.w3.org/2000/svg" version="1.1" width="259px" height="194px" style="shape-rendering:geometricPrecision; text-rendering:geometricPrecision; image-rendering:optimizeQuality; fill-rule:evenodd; clip-rule:evenodd" xmlns:xlink="http://www.w3.org/1999/xlink">
<g><path style="opacity:1" fill="#fefefe" d="M -0.5,-0.5 C 85.8333,-0.5 172.167,-0.5 258.5,-0.5C 258.5,64.1667 258.5,128.833 258.5,193.5C 172.167,193.5 85.8333,193.5 -0.5,193.5C -0.5,128.833 -0.5,64.1667 -0.5,-0.5 Z"/></g>
<g><path style="opacity:1" fill="#b3b3b3" d="M 158.5,7.5 C 160.5,7.5 162.5,7.5 164.5,7.5C 164.515,27.9802 154.849,41.4802 135.5,48C 133.19,48.4966 130.857,48.6633 128.5,48.5C 129.347,28.0052 139.347,14.3385 158.5,7.5 Z"/></g>
<g><path style="opacity:1" fill="#b3b3b3" d="M 95.5,50.5 C 100.232,50.3776 104.898,50.8776 109.5,52C 116.027,54.6757 122.693,56.8424 129.5,58.5C 137.576,56.3083 145.576,53.8083 153.5,51C 171.132,48.1577 185.465,53.6577 196.5,67.5C 176.066,83.5042 172.233,102.838 185,125.5C 189.307,131.331 194.807,135.331 201.5,137.5C 196.107,154.779 186.774,169.613 173.5,182C 167.524,185.15 161.19,186.15 154.5,185C 147.538,181.512 140.205,179.345 132.5,178.5C 122.264,180.523 112.097,182.856 102,185.5C 100.167,185.333 98.3333,185.167 96.5,185C 86.7619,178.717 78.9285,170.55 73,160.5C 60.4217,139.521 55.0884,116.855 57,92.5C 60.7379,69.9369 73.5713,55.9369 95.5,50.5 Z"/></g>
</svg>
